<?xml version="1.0" encoding="UTF-8" standalone="no"?>
<!DOCTYPE svg PUBLIC "-//W3C//DTD SVG 1.1//EN"
 "http://www.w3.org/Graphics/SVG/1.1/DTD/svg11.dtd">
<!-- Generated by graphviz version 2.36.0 (20140111.2315)
 -->
<!-- Title: G Pages: 1 -->
<svg width="702pt" height="464pt"
 viewBox="0.00 0.00 702.00 464.00" xmlns="http://www.w3.org/2000/svg" xmlns:xlink="http://www.w3.org/1999/xlink">
<g id="graph0" class="graph" transform="scale(1 1) rotate(0) translate(4 460)">
<title>G</title>
<polygon fill="white" stroke="none" points="-4,4 -4,-460 698,-460 698,4 -4,4"/>
<g id="clust1" class="cluster"><title>cluster_Global</title>
<path fill="none" stroke="gray" d="M20,-8C20,-8 674,-8 674,-8 680,-8 686,-14 686,-20 686,-20 686,-436 686,-436 686,-442 680,-448 674,-448 674,-448 20,-448 20,-448 14,-448 8,-442 8,-436 8,-436 8,-20 8,-20 8,-14 14,-8 20,-8"/>
<text text-anchor="middle" x="347" y="-435.2" font-family="Times,serif" font-size="11.00" fill="gray">Global</text>
</g>
<g id="clust2" class="cluster"><title>cluster_\AbstractFactoryTutorial</title>
<path fill="none" stroke="gray" d="M28,-16C28,-16 666,-16 666,-16 672,-16 678,-22 678,-28 678,-28 678,-408 678,-408 678,-414 672,-420 666,-420 666,-420 28,-420 28,-420 22,-420 16,-414 16,-408 16,-408 16,-28 16,-28 16,-22 22,-16 28,-16"/>
<text text-anchor="middle" x="347" y="-407.2" font-family="Times,serif" font-size="11.00" fill="gray">AbstractFactoryTutorial</text>
</g>
<g id="clust4" class="cluster"><title>cluster_\AbstractFactoryTutorial\Factory</title>
<path fill="none" stroke="gray" d="M348,-212C348,-212 658,-212 658,-212 664,-212 670,-218 670,-224 670,-224 670,-380 670,-380 670,-386 664,-392 658,-392 658,-392 348,-392 348,-392 342,-392 336,-386 336,-380 336,-380 336,-224 336,-224 336,-218 342,-212 348,-212"/>
<text text-anchor="middle" x="503" y="-379.2" font-family="Times,serif" font-size="11.00" fill="gray">Factory</text>
</g>
<g id="clust3" class="cluster"><title>cluster_\AbstractFactoryTutorial\Products</title>
<path fill="none" stroke="gray" d="M36,-24C36,-24 621,-24 621,-24 627,-24 633,-30 633,-36 633,-36 633,-192 633,-192 633,-198 627,-204 621,-204 621,-204 36,-204 36,-204 30,-204 24,-198 24,-192 24,-192 24,-36 24,-36 24,-30 30,-24 36,-24"/>
<text text-anchor="middle" x="328.5" y="-191.2" font-family="Times,serif" font-size="11.00" fill="gray">Products</text>
</g>
<!-- \\AbstractFactoryTutorial\\Products\\Circle -->
<g id="node1" class="node"><title>\\AbstractFactoryTutorial\\Products\\Circle</title>
<polygon fill="none" stroke="black" points="625,-176 569,-176 569,-140 625,-140 625,-176"/>
<text text-anchor="middle" x="597" y="-155.2" font-family="Courier,monospace" font-size="11.00">Circle</text>
</g>
<!-- \\AbstractFactoryTutorial\\Products\\Ellipse -->
<g id="node7" class="node"><title>\\AbstractFactoryTutorial\\Products\\Ellipse</title>
<polygon fill="none" stroke="black" points="433.5,-176 370.5,-176 370.5,-140 433.5,-140 433.5,-176"/>
<text text-anchor="middle" x="402" y="-155.2" font-family="Courier,monospace" font-size="11.00">Ellipse</text>
</g>
<!-- \\AbstractFactoryTutorial\\Products\\Circle&#45;&gt;\\AbstractFactoryTutorial\\Products\\Ellipse -->
<g id="edge1" class="edge"><title>\\AbstractFactoryTutorial\\Products\\Circle&#45;&gt;\\AbstractFactoryTutorial\\Products\\Ellipse</title>
<path fill="none" stroke="black" d="M568.757,-158C536.18,-158 481.345,-158 443.728,-158"/>
<polygon fill="none" stroke="black" points="443.607,-154.5 433.607,-158 443.607,-161.5 443.607,-154.5"/>
</g>
<!-- \\AbstractFactoryTutorial\\Products\\Polygon -->
<g id="node2" class="node"><title>\\AbstractFactoryTutorial\\Products\\Polygon</title>
<polygon fill="none" stroke="black" points="271.5,-122 188.5,-122 188.5,-86 271.5,-86 271.5,-122"/>
<text text-anchor="start" x="196.5" y="-107.2" font-family="Courier,monospace" font-size="11.00">«abstract»</text>
<text text-anchor="start" x="206.5" y="-95.2" font-family="Courier,monospace" font-size="11.00">Polygon</text>
</g>
<!-- \\AbstractFactoryTutorial\\Products\\Shape -->
<g id="node3" class="node"><title>\\AbstractFactoryTutorial\\Products\\Shape</title>
<polygon fill="none" stroke="black" points="115.5,-149 32.5,-149 32.5,-113 115.5,-113 115.5,-149"/>
<text text-anchor="start" x="40.5" y="-134.2" font-family="Courier,monospace" font-size="11.00">«abstract»</text>
<text text-anchor="start" x="57" y="-122.2" font-family="Courier,monospace" font-size="11.00">Shape</text>
</g>
<!-- \\AbstractFactoryTutorial\\Products\\Polygon&#45;&gt;\\AbstractFactoryTutorial\\Products\\Shape -->
<g id="edge2" class="edge"><title>\\AbstractFactoryTutorial\\Products\\Polygon&#45;&gt;\\AbstractFactoryTutorial\\Products\\Shape</title>
<path fill="none" stroke="black" d="M188.135,-111.165C168.925,-114.533 145.835,-118.581 125.538,-122.139"/>
<polygon fill="none" stroke="black" points="124.767,-118.721 115.521,-123.896 125.976,-125.616 124.767,-118.721"/>
</g>
<!-- \\AbstractFactoryTutorial\\Products\\Rectangle -->
<g id="node4" class="node"><title>\\AbstractFactoryTutorial\\Products\\Rectangle</title>
<polygon fill="none" stroke="black" points="440,-122 364,-122 364,-86 440,-86 440,-122"/>
<text text-anchor="middle" x="402" y="-101.2" font-family="Courier,monospace" font-size="11.00">Rectangle</text>
</g>
<!-- \\AbstractFactoryTutorial\\Products\\Rectangle&#45;&gt;\\AbstractFactoryTutorial\\Products\\Polygon -->
<g id="edge3" class="edge"><title>\\AbstractFactoryTutorial\\Products\\Rectangle&#45;&gt;\\AbstractFactoryTutorial\\Products\\Polygon</title>
<path fill="none" stroke="black" d="M363.693,-104C339.706,-104 308.226,-104 281.948,-104"/>
<polygon fill="none" stroke="black" points="281.789,-100.5 271.788,-104 281.788,-107.5 281.789,-100.5"/>
</g>
<!-- \\AbstractFactoryTutorial\\Products\\NonPolygon -->
<g id="node5" class="node"><title>\\AbstractFactoryTutorial\\Products\\NonPolygon</title>
<polygon fill="none" stroke="black" points="271.5,-176 188.5,-176 188.5,-140 271.5,-140 271.5,-176"/>
<text text-anchor="start" x="196.5" y="-161.2" font-family="Courier,monospace" font-size="11.00">«abstract»</text>
<text text-anchor="start" x="196.5" y="-149.2" font-family="Courier,monospace" font-size="11.00">NonPolygon</text>
</g>
<!-- \\AbstractFactoryTutorial\\Products\\NonPolygon&#45;&gt;\\AbstractFactoryTutorial\\Products\\Shape -->
<g id="edge4" class="edge"><title>\\AbstractFactoryTutorial\\Products\\NonPolygon&#45;&gt;\\AbstractFactoryTutorial\\Products\\Shape</title>
<path fill="none" stroke="black" d="M188.135,-150.835C168.925,-147.467 145.835,-143.419 125.538,-139.861"/>
<polygon fill="none" stroke="black" points="125.976,-136.384 115.521,-138.104 124.767,-143.279 125.976,-136.384"/>
</g>
<!-- \\AbstractFactoryTutorial\\Products\\Triangle -->
<g id="node6" class="node"><title>\\AbstractFactoryTutorial\\Products\\Triangle</title>
<polygon fill="none" stroke="black" points="436.5,-68 367.5,-68 367.5,-32 436.5,-32 436.5,-68"/>
<text text-anchor="middle" x="402" y="-47.2" font-family="Courier,monospace" font-size="11.00">Triangle</text>
</g>
<!-- \\AbstractFactoryTutorial\\Products\\Triangle&#45;&gt;\\AbstractFactoryTutorial\\Products\\Polygon -->
<g id="edge6" class="edge"><title>\\AbstractFactoryTutorial\\Products\\Triangle&#45;&gt;\\AbstractFactoryTutorial\\Products\\Polygon</title>
<path fill="none" stroke="black" d="M367.413,-60.6687C342.831,-68.4773 309.058,-79.205 281.268,-88.0325"/>
<polygon fill="none" stroke="black" points="280.184,-84.7046 271.712,-91.0678 282.303,-91.3761 280.184,-84.7046"/>
</g>
<!-- \\AbstractFactoryTutorial\\Products\\Ellipse&#45;&gt;\\AbstractFactoryTutorial\\Products\\NonPolygon -->
<g id="edge8" class="edge"><title>\\AbstractFactoryTutorial\\Products\\Ellipse&#45;&gt;\\AbstractFactoryTutorial\\Products\\NonPolygon</title>
<path fill="none" stroke="black" d="M370.214,-158C345.672,-158 310.78,-158 282.068,-158"/>
<polygon fill="none" stroke="black" points="281.8,-154.5 271.8,-158 281.8,-161.5 281.8,-154.5"/>
</g>
<!-- \\AbstractFactoryTutorial\\Factory\\FactoryProducer -->
<g id="node8" class="node"><title>\\AbstractFactoryTutorial\\Factory\\FactoryProducer</title>
<polygon fill="none" stroke="black" points="655,-364 539,-364 539,-328 655,-328 655,-364"/>
<text text-anchor="middle" x="597" y="-343.2" font-family="Courier,monospace" font-size="11.00">FactoryProducer</text>
</g>
<!-- \\AbstractFactoryTutorial\\Factory\\AbstractFactory -->
<g id="node9" class="node"><title>\\AbstractFactoryTutorial\\Factory\\AbstractFactory</title>
<polygon fill="none" stroke="black" points="460,-283 344,-283 344,-247 460,-247 460,-283"/>
<text text-anchor="start" x="368.5" y="-268.2" font-family="Courier,monospace" font-size="11.00">«abstract»</text>
<text text-anchor="start" x="352" y="-256.2" font-family="Courier,monospace" font-size="11.00">AbstractFactory</text>
</g>
<!-- \\AbstractFactoryTutorial\\Factory\\NonPolygonFactory -->
<g id="node10" class="node"><title>\\AbstractFactoryTutorial\\Factory\\NonPolygonFactory</title>
<polygon fill="none" stroke="black" points="661.5,-310 532.5,-310 532.5,-274 661.5,-274 661.5,-310"/>
<text text-anchor="middle" x="597" y="-289.2" font-family="Courier,monospace" font-size="11.00">NonPolygonFactory</text>
</g>
<!-- \\AbstractFactoryTutorial\\Factory\\NonPolygonFactory&#45;&gt;\\AbstractFactoryTutorial\\Factory\\AbstractFactory -->
<g id="edge5" class="edge"><title>\\AbstractFactoryTutorial\\Factory\\NonPolygonFactory&#45;&gt;\\AbstractFactoryTutorial\\Factory\\AbstractFactory</title>
<path fill="none" stroke="black" d="M532.27,-283.084C512.357,-280.299 490.331,-277.217 470.189,-274.399"/>
<polygon fill="none" stroke="black" points="470.548,-270.916 460.16,-272.996 469.578,-277.848 470.548,-270.916"/>
</g>
<!-- \\AbstractFactoryTutorial\\Factory\\PolygonFactory -->
<g id="node11" class="node"><title>\\AbstractFactoryTutorial\\Factory\\PolygonFactory</title>
<polygon fill="none" stroke="black" points="651.5,-256 542.5,-256 542.5,-220 651.5,-220 651.5,-256"/>
<text text-anchor="middle" x="597" y="-235.2" font-family="Courier,monospace" font-size="11.00">PolygonFactory</text>
</g>
<!-- \\AbstractFactoryTutorial\\Factory\\PolygonFactory&#45;&gt;\\AbstractFactoryTutorial\\Factory\\AbstractFactory -->
<g id="edge7" class="edge"><title>\\AbstractFactoryTutorial\\Factory\\PolygonFactory&#45;&gt;\\AbstractFactoryTutorial\\Factory\\AbstractFactory</title>
<path fill="none" stroke="black" d="M542.495,-245.485C520.142,-248.612 493.92,-252.281 470.28,-255.588"/>
<polygon fill="none" stroke="black" points="469.745,-252.128 460.326,-256.98 470.715,-259.061 469.745,-252.128"/>
</g>
</g>
</svg>
