<?xml version="1.0" encoding="UTF-8" standalone="no"?>
<!DOCTYPE svg PUBLIC "-//W3C//DTD SVG 1.1//EN"
 "http://www.w3.org/Graphics/SVG/1.1/DTD/svg11.dtd">
<!-- Generated by graphviz version 2.38.0 (20140413.2041)
 -->
<!-- Title: G Pages: 1 -->
<svg width="310pt" height="294pt"
 viewBox="0.00 0.00 310.00 294.00" xmlns="http://www.w3.org/2000/svg" xmlns:xlink="http://www.w3.org/1999/xlink">
<g id="graph0" class="graph" transform="scale(1 1) rotate(0) translate(4 290)">
<title>G</title>
<polygon fill="white" stroke="none" points="-4,4 -4,-290 306,-290 306,4 -4,4"/>
<g id="clust1" class="cluster"><title>cluster_Global</title>
<path fill="none" stroke="gray" d="M20,-8C20,-8 282,-8 282,-8 288,-8 294,-14 294,-20 294,-20 294,-266 294,-266 294,-272 288,-278 282,-278 282,-278 20,-278 20,-278 14,-278 8,-272 8,-266 8,-266 8,-20 8,-20 8,-14 14,-8 20,-8"/>
<text text-anchor="middle" x="151" y="-265.2" font-family="Times New Roman,serif" font-size="11.00" fill="gray">Global</text>
</g>
<g id="clust2" class="cluster"><title>cluster_\FactoryMethodPattern</title>
<path fill="none" stroke="gray" d="M28,-16C28,-16 274,-16 274,-16 280,-16 286,-22 286,-28 286,-28 286,-238 286,-238 286,-244 280,-250 274,-250 274,-250 28,-250 28,-250 22,-250 16,-244 16,-238 16,-238 16,-28 16,-28 16,-22 22,-16 28,-16"/>
<text text-anchor="middle" x="151" y="-237.2" font-family="Times New Roman,serif" font-size="11.00" fill="gray">FactoryMethodPattern</text>
</g>
<!-- \\FactoryMethodPattern\\Circle -->
<g id="node1" class="node"><title>\\FactoryMethodPattern\\Circle</title>
<polygon fill="none" stroke="black" points="257.5,-222 200.5,-222 200.5,-186 257.5,-186 257.5,-222"/>
<text text-anchor="middle" x="229" y="-201.2" font-family="Courier,monospace" font-size="11.00">Circle</text>
</g>
<!-- \\FactoryMethodPattern\\Shape -->
<g id="node3" class="node"><title>\\FactoryMethodPattern\\Shape</title>
<polygon fill="none" stroke="black" points="108,-168 24,-168 24,-132 108,-132 108,-168"/>
<text text-anchor="start" x="32" y="-153.2" font-family="Courier,monospace" font-size="11.00">«abstract»</text>
<text text-anchor="start" x="49" y="-141.2" font-family="Courier,monospace" font-size="11.00">Shape</text>
</g>
<!-- \\FactoryMethodPattern\\Circle&#45;&gt;\\FactoryMethodPattern\\Shape -->
<g id="edge1" class="edge"><title>\\FactoryMethodPattern\\Circle&#45;&gt;\\FactoryMethodPattern\\Shape</title>
<path fill="none" stroke="black" d="M200.323,-194.717C177.742,-187.143 145.234,-176.24 117.971,-167.096"/>
<polygon fill="none" stroke="black" points="118.786,-163.678 108.192,-163.816 116.56,-170.314 118.786,-163.678"/>
</g>
<!-- \\FactoryMethodPattern\\Rectangle -->
<g id="node2" class="node"><title>\\FactoryMethodPattern\\Rectangle</title>
<polygon fill="none" stroke="black" points="267.5,-168 190.5,-168 190.5,-132 267.5,-132 267.5,-168"/>
<text text-anchor="middle" x="229" y="-147.2" font-family="Courier,monospace" font-size="11.00">Rectangle</text>
</g>
<!-- \\FactoryMethodPattern\\Rectangle&#45;&gt;\\FactoryMethodPattern\\Shape -->
<g id="edge2" class="edge"><title>\\FactoryMethodPattern\\Rectangle&#45;&gt;\\FactoryMethodPattern\\Shape</title>
<path fill="none" stroke="black" d="M190.253,-150C168.798,-150 141.635,-150 118.273,-150"/>
<polygon fill="none" stroke="black" points="118.181,-146.5 108.181,-150 118.181,-153.5 118.181,-146.5"/>
</g>
<!-- \\FactoryMethodPattern\\ShapeFactory -->
<g id="node4" class="node"><title>\\FactoryMethodPattern\\ShapeFactory</title>
<polygon fill="none" stroke="black" points="278,-114 180,-114 180,-78 278,-78 278,-114"/>
<text text-anchor="middle" x="229" y="-93.2" font-family="Courier,monospace" font-size="11.00">ShapeFactory</text>
</g>
<!-- \\FactoryMethodPattern\\Square -->
<g id="node5" class="node"><title>\\FactoryMethodPattern\\Square</title>
<polygon fill="none" stroke="black" points="257.5,-60 200.5,-60 200.5,-24 257.5,-24 257.5,-60"/>
<text text-anchor="middle" x="229" y="-39.2" font-family="Courier,monospace" font-size="11.00">Square</text>
</g>
<!-- \\FactoryMethodPattern\\Square&#45;&gt;\\FactoryMethodPattern\\Shape -->
<g id="edge3" class="edge"><title>\\FactoryMethodPattern\\Square&#45;&gt;\\FactoryMethodPattern\\Shape</title>
<path fill="none" stroke="black" d="M200.281,-56.9109C193.558,-60.713 186.451,-64.8907 180,-69 151.839,-86.9378 121.118,-109.14 98.8264,-125.761"/>
<polygon fill="none" stroke="black" points="96.6217,-123.039 90.7185,-131.837 100.82,-128.641 96.6217,-123.039"/>
</g>
</g>
</svg>
