<?xml version="1.0" encoding="UTF-8" standalone="no"?>
<!DOCTYPE svg PUBLIC "-//W3C//DTD SVG 1.1//EN"
 "http://www.w3.org/Graphics/SVG/1.1/DTD/svg11.dtd">
<!-- Generated by graphviz version 2.36.0 (20140111.2315)
 -->
<!-- Title: G Pages: 1 -->
<svg width="390pt" height="464pt"
 viewBox="0.00 0.00 390.00 464.00" xmlns="http://www.w3.org/2000/svg" xmlns:xlink="http://www.w3.org/1999/xlink">
<g id="graph0" class="graph" transform="scale(1 1) rotate(0) translate(4 460)">
<title>G</title>
<polygon fill="white" stroke="none" points="-4,4 -4,-460 386,-460 386,4 -4,4"/>
<g id="clust1" class="cluster"><title>cluster_Global</title>
<path fill="none" stroke="gray" d="M20,-8C20,-8 362,-8 362,-8 368,-8 374,-14 374,-20 374,-20 374,-436 374,-436 374,-442 368,-448 362,-448 362,-448 20,-448 20,-448 14,-448 8,-442 8,-436 8,-436 8,-20 8,-20 8,-14 14,-8 20,-8"/>
<text text-anchor="middle" x="191" y="-435.2" font-family="Times,serif" font-size="11.00" fill="gray">Global</text>
</g>
<g id="clust2" class="cluster"><title>cluster_\AbstractFactoryTutorial</title>
<path fill="none" stroke="gray" d="M28,-16C28,-16 354,-16 354,-16 360,-16 366,-22 366,-28 366,-28 366,-408 366,-408 366,-414 360,-420 354,-420 354,-420 28,-420 28,-420 22,-420 16,-414 16,-408 16,-408 16,-28 16,-28 16,-22 22,-16 28,-16"/>
<text text-anchor="middle" x="191" y="-407.2" font-family="Times,serif" font-size="11.00" fill="gray">AbstractFactoryTutorial</text>
</g>
<g id="clust3" class="cluster"><title>cluster_\AbstractFactoryTutorial\Factory</title>
<path fill="none" stroke="gray" d="M36,-212C36,-212 346,-212 346,-212 352,-212 358,-218 358,-224 358,-224 358,-380 358,-380 358,-386 352,-392 346,-392 346,-392 36,-392 36,-392 30,-392 24,-386 24,-380 24,-380 24,-224 24,-224 24,-218 30,-212 36,-212"/>
<text text-anchor="middle" x="191" y="-379.2" font-family="Times,serif" font-size="11.00" fill="gray">Factory</text>
</g>
<g id="clust4" class="cluster"><title>cluster_\AbstractFactoryTutorial\Products</title>
<path fill="none" stroke="gray" d="M52,-24C52,-24 319,-24 319,-24 325,-24 331,-30 331,-36 331,-36 331,-192 331,-192 331,-198 325,-204 319,-204 319,-204 52,-204 52,-204 46,-204 40,-198 40,-192 40,-192 40,-36 40,-36 40,-30 46,-24 52,-24"/>
<text text-anchor="middle" x="185.5" y="-191.2" font-family="Times,serif" font-size="11.00" fill="gray">Products</text>
</g>
<!-- \\AbstractFactoryTutorial\\Factory\\AbstractFactory -->
<g id="node1" class="node"><title>\\AbstractFactoryTutorial\\Factory\\AbstractFactory</title>
<polygon fill="none" stroke="black" points="148,-310 32,-310 32,-274 148,-274 148,-310"/>
<text text-anchor="start" x="56.5" y="-295.2" font-family="Courier,monospace" font-size="11.00">«abstract»</text>
<text text-anchor="start" x="40" y="-283.2" font-family="Courier,monospace" font-size="11.00">AbstractFactory</text>
</g>
<!-- \\AbstractFactoryTutorial\\Factory\\FactoryProducer -->
<g id="node2" class="node"><title>\\AbstractFactoryTutorial\\Factory\\FactoryProducer</title>
<polygon fill="none" stroke="black" points="343,-364 227,-364 227,-328 343,-328 343,-364"/>
<text text-anchor="middle" x="285" y="-343.2" font-family="Courier,monospace" font-size="11.00">FactoryProducer</text>
</g>
<!-- \\AbstractFactoryTutorial\\Factory\\FactoryProducer&#45;&gt;\\AbstractFactoryTutorial\\Factory\\AbstractFactory -->
<g id="edge1" class="edge"><title>\\AbstractFactoryTutorial\\Factory\\FactoryProducer&#45;&gt;\\AbstractFactoryTutorial\\Factory\\AbstractFactory</title>
<path fill="none" stroke="black" d="M226.877,-330.017C205.285,-323.976 180.518,-317.046 158.093,-310.772"/>
<polygon fill="none" stroke="black" points="158.883,-307.359 148.31,-308.035 156.997,-314.1 158.883,-307.359"/>
</g>
<!-- \\AbstractFactoryTutorial\\Factory\\NonPolygonFactory -->
<g id="node3" class="node"><title>\\AbstractFactoryTutorial\\Factory\\NonPolygonFactory</title>
<polygon fill="none" stroke="black" points="349.5,-310 220.5,-310 220.5,-274 349.5,-274 349.5,-310"/>
<text text-anchor="middle" x="285" y="-289.2" font-family="Courier,monospace" font-size="11.00">NonPolygonFactory</text>
</g>
<!-- \\AbstractFactoryTutorial\\Factory\\NonPolygonFactory&#45;&gt;\\AbstractFactoryTutorial\\Factory\\AbstractFactory -->
<g id="edge2" class="edge"><title>\\AbstractFactoryTutorial\\Factory\\NonPolygonFactory&#45;&gt;\\AbstractFactoryTutorial\\Factory\\AbstractFactory</title>
<path fill="none" stroke="black" d="M220.27,-292C200.357,-292 178.331,-292 158.189,-292"/>
<polygon fill="none" stroke="black" points="158.16,-288.5 148.16,-292 158.16,-295.5 158.16,-288.5"/>
</g>
<!-- \\AbstractFactoryTutorial\\Factory\\PolygonFactory -->
<g id="node4" class="node"><title>\\AbstractFactoryTutorial\\Factory\\PolygonFactory</title>
<polygon fill="none" stroke="black" points="339.5,-256 230.5,-256 230.5,-220 339.5,-220 339.5,-256"/>
<text text-anchor="middle" x="285" y="-235.2" font-family="Courier,monospace" font-size="11.00">PolygonFactory</text>
</g>
<!-- \\AbstractFactoryTutorial\\Factory\\PolygonFactory&#45;&gt;\\AbstractFactoryTutorial\\Factory\\AbstractFactory -->
<g id="edge3" class="edge"><title>\\AbstractFactoryTutorial\\Factory\\PolygonFactory&#45;&gt;\\AbstractFactoryTutorial\\Factory\\AbstractFactory</title>
<path fill="none" stroke="black" d="M230.495,-252.97C208.042,-259.253 181.685,-266.627 157.964,-273.264"/>
<polygon fill="none" stroke="black" points="157.013,-269.895 148.326,-275.961 158.899,-276.637 157.013,-269.895"/>
</g>
<!-- \\AbstractFactoryTutorial\\Products\\Circle -->
<g id="node5" class="node"><title>\\AbstractFactoryTutorial\\Products\\Circle</title>
<polygon fill="none" stroke="black" points="313,-176 257,-176 257,-140 313,-140 313,-176"/>
<text text-anchor="middle" x="285" y="-155.2" font-family="Courier,monospace" font-size="11.00">Circle</text>
</g>
<!-- \\AbstractFactoryTutorial\\Products\\Shape -->
<g id="node7" class="node"><title>\\AbstractFactoryTutorial\\Products\\Shape</title>
<polygon fill="none" stroke="black" points="131.5,-122 48.5,-122 48.5,-86 131.5,-86 131.5,-122"/>
<text text-anchor="start" x="56.5" y="-107.2" font-family="Courier,monospace" font-size="11.00">«abstract»</text>
<text text-anchor="start" x="73" y="-95.2" font-family="Courier,monospace" font-size="11.00">Shape</text>
</g>
<!-- \\AbstractFactoryTutorial\\Products\\Circle&#45;&gt;\\AbstractFactoryTutorial\\Products\\Shape -->
<g id="edge4" class="edge"><title>\\AbstractFactoryTutorial\\Products\\Circle&#45;&gt;\\AbstractFactoryTutorial\\Products\\Shape</title>
<path fill="none" stroke="black" d="M256.757,-150.378C226.934,-142.033 178.459,-128.47 141.615,-118.162"/>
<polygon fill="none" stroke="black" points="142.13,-114.671 131.557,-115.347 140.244,-121.412 142.13,-114.671"/>
</g>
<!-- \\AbstractFactoryTutorial\\Products\\Rectangle -->
<g id="node6" class="node"><title>\\AbstractFactoryTutorial\\Products\\Rectangle</title>
<polygon fill="none" stroke="black" points="323,-122 247,-122 247,-86 323,-86 323,-122"/>
<text text-anchor="middle" x="285" y="-101.2" font-family="Courier,monospace" font-size="11.00">Rectangle</text>
</g>
<!-- \\AbstractFactoryTutorial\\Products\\Rectangle&#45;&gt;\\AbstractFactoryTutorial\\Products\\Shape -->
<g id="edge5" class="edge"><title>\\AbstractFactoryTutorial\\Products\\Rectangle&#45;&gt;\\AbstractFactoryTutorial\\Products\\Shape</title>
<path fill="none" stroke="black" d="M246.788,-104C217.036,-104 175.01,-104 142.104,-104"/>
<polygon fill="none" stroke="black" points="141.768,-100.5 131.768,-104 141.768,-107.5 141.768,-100.5"/>
</g>
<!-- \\AbstractFactoryTutorial\\Products\\Square -->
<g id="node8" class="node"><title>\\AbstractFactoryTutorial\\Products\\Square</title>
<polygon fill="none" stroke="black" points="313,-68 257,-68 257,-32 313,-32 313,-68"/>
<text text-anchor="middle" x="285" y="-47.2" font-family="Courier,monospace" font-size="11.00">Square</text>
</g>
<!-- \\AbstractFactoryTutorial\\Products\\Square&#45;&gt;\\AbstractFactoryTutorial\\Products\\Shape -->
<g id="edge6" class="edge"><title>\\AbstractFactoryTutorial\\Products\\Square&#45;&gt;\\AbstractFactoryTutorial\\Products\\Shape</title>
<path fill="none" stroke="black" d="M256.757,-57.6224C226.934,-65.9666 178.459,-79.5297 141.615,-89.8384"/>
<polygon fill="none" stroke="black" points="140.244,-86.5875 131.557,-92.6526 142.13,-93.3286 140.244,-86.5875"/>
</g>
</g>
</svg>
